PathFileType	4	(X/Y/Z)	output.trc
DataRate	CameraRate	NumFrames	NumMarkers	Units	OrigDataRate	OrigDataStartFrame	OrigNumFrames
100	100	18	23	m	100	1	2812
Frame#	Time	C7			T8			EL			EM			US			RS			AA			Fore_Clus_1			Fore_Clus_2			Fore_Clus_3			Fore_Clus_4			Hum_Clus_1			Hum_Clus_2			Hum_Clus_3			Hum_Clus_4			Thor_Clus_1			Thor_Clus_2			Thor_Clus_3			Thor_Clus_4			IJ			PX			GH			Thor_Clus_5		
		X1	Y1	Z1	X2	Y2	Z2	X3	Y3	Z3	X4	Y4	Z4	X5	Y5	Z5	X6	Y6	Z6	X7	Y7	Z7	X8	Y8	Z8	X9	Y9	Z9	X10	Y10	Z10	X11	Y11	Z11	X12	Y12	Z12	X13	Y13	Z13	X14	Y14	Z14	X15	Y15	Z15	X16	Y16	Z16	X17	Y17	Z17	X18	Y18	Z18	X19	Y19	Z19	X20	Y20	Z20	X21	Y21	Z21	X22	Y22	Z22	X23	Y23	Z23
0	0.000000	0.914936	1.421926	-0.177089	0.829454	1.268670	-0.248527	0.635712	1.110018	-0.058368	0.656185	1.105416	-0.119910	0.634449	0.869788	0.021959	0.683257	0.891857	0.019111	0.762305	1.355631	-0.048913	0.628228	0.948329	0.036553	0.633965	0.898339	0.058185	0.661332	0.902105	0.059442	0.672347	0.954897	0.038693	0.678370	1.184159	-0.007164	0.643538	1.213230	-0.047817	0.663012	1.273285	-0.037727	0.705486	1.253748	-0.002004	1.001079	1.256526	-0.105678	0.953922	1.206392	-0.056878	0.967603	1.258957	-0.076187	1.002847	1.202381	-0.098978	0.939636	1.310604	-0.124549	0.916820	1.127207	-0.116457	0.798610	1.342765	-0.084098	0.953466	1.230443	-0.059115
1	0.010000	0.909169	1.423994	-0.177575	0.824554	1.270567	-0.249675	0.629146	1.111604	-0.061683	0.650476	1.106972	-0.122931	0.626067	0.871191	0.018052	0.674893	0.893346	0.016449	0.755584	1.357476	-0.050660	0.619366	0.949737	0.032701	0.624560	0.899917	0.054286	0.652131	0.905518	0.057098	0.663468	0.956371	0.035771	0.670941	1.186351	-0.010091	0.636784	1.214882	-0.051078	0.656169	1.275001	-0.040896	0.698054	1.255441	-0.004487	0.995034	1.258845	-0.105446	0.948313	1.209292	-0.056323	0.961618	1.261456	-0.076064	0.996874	1.204767	-0.098587	0.933620	1.312732	-0.124792	0.911055	1.129298	-0.116830	0.792018	1.344583	-0.085401	0.947257	1.232689	-0.059430
2	0.020000	0.903522	1.425962	-0.178079	0.819875	1.272331	-0.250869	0.622671	1.113158	-0.065132	0.644892	1.108487	-0.126060	0.617920	0.872569	0.014066	0.666720	0.894834	0.013671	0.748956	1.359168	-0.052508	0.610632	0.951306	0.028805	0.615519	0.901241	0.050230	0.643095	0.906750	0.053510	0.654789	0.957748	0.032696	0.663602	1.188033	-0.013045	0.630157	1.216526	-0.054470	0.649016	1.276623	-0.043891	0.690575	1.257091	-0.007090	0.989062	1.261064	-0.105188	0.941577	1.210875	-0.056996	0.955413	1.263651	-0.076226	0.991121	1.206997	-0.098158	0.927737	1.314771	-0.125038	0.905488	1.131294	-0.117205	0.785602	1.346301	-0.086733	0.940775	1.234637	-0.059677
3	0.030000	0.898033	1.427796	-0.178613	0.815458	1.273937	-0.252144	0.616269	1.114642	-0.068665	0.639378	1.109912	-0.129257	0.610030	0.873899	0.010010	0.658765	0.896298	0.010767	0.742426	1.360677	-0.054509	0.602198	0.952570	0.024617	0.606759	0.902461	0.046101	0.633817	0.906177	0.049298	0.646181	0.959206	0.029618	0.656656	1.189293	-0.016297	0.623581	1.217987	-0.057962	0.642214	1.278116	-0.047142	0.683201	1.258653	-0.009691	0.983317	1.263186	-0.104887	0.936227	1.213683	-0.056428	0.949438	1.265707	-0.076182	0.985324	1.209123	-0.097835	0.922003	1.316683	-0.125298	0.900119	1.133155	-0.117607	0.779330	1.347878	-0.088181	0.934819	1.237085	-0.059591
4	0.040000	0.892669	1.429454	-0.179178	0.811274	1.275342	-0.253490	0.609963	1.116017	-0.072300	0.633968	1.111215	-0.132537	0.602365	0.875138	0.005922	0.651011	0.897670	0.007749	0.735983	1.361954	-0.056648	0.593986	0.953657	0.020483	0.598132	0.903647	0.041993	0.625265	0.907687	0.045936	0.637841	0.960398	0.026384	0.649554	1.190619	-0.019368	0.617000	1.219347	-0.061581	0.635683	1.279479	-0.050612	0.675978	1.260125	-0.012475	0.977614	1.264997	-0.104660	0.928552	1.214527	-0.056688	0.943375	1.267507	-0.076299	0.979781	1.210978	-0.097447	0.916396	1.318427	-0.125576	0.894938	1.134843	-0.118038	0.773227	1.349279	-0.089705	0.928796	1.238820	-0.059700
5	0.050000	0.887435	1.430915	-0.179778	0.807326	1.276531	-0.254918	0.603767	1.117254	-0.076027	0.628665	1.112368	-0.135894	0.594918	0.876256	0.001811	0.643460	0.898911	0.004612	0.729628	1.362977	-0.058940	0.586042	0.954646	0.016244	0.589992	0.904546	0.037896	0.616909	0.908587	0.042193	0.629659	0.961540	0.023197	0.642279	1.192302	-0.022584	0.610548	1.220530	-0.065286	0.628817	1.280676	-0.054024	0.668847	1.261324	-0.015342	0.972381	1.267069	-0.103941	0.923762	1.216580	-0.056658	0.937637	1.269190	-0.076196	0.974306	1.212630	-0.096940	0.910914	1.319979	-0.125880	0.889935	1.136332	-0.118510	0.767289	1.350482	-0.091322	0.922788	1.239996	-0.059928
6	0.060000	0.882356	1.432171	-0.180422	0.803630	1.277506	-0.256441	0.597689	1.118331	-0.079822	0.623458	1.113345	-0.139310	0.587692	0.877238	-0.002327	0.636125	0.900000	0.001347	0.723377	1.363751	-0.061407	0.578405	0.955427	0.012177	0.581888	0.905221	0.033562	0.608845	0.909421	0.038407	0.622177	0.962342	0.019612	0.635341	1.193335	-0.025668	0.604205	1.221583	-0.069047	0.622580	1.281724	-0.057735	0.661800	1.262453	-0.018392	0.966897	1.268554	-0.103534	0.918397	1.218128	-0.056686	0.932022	1.270560	-0.076364	0.968921	1.214123	-0.096514	0.905568	1.321327	-0.126221	0.885104	1.137615	-0.119039	0.761506	1.351477	-0.093076	0.917064	1.241687	-0.060009
7	0.070000	0.877397	1.433215	-0.181106	0.800139	1.278261	-0.258037	0.591777	1.119230	-0.083717	0.618414	1.114144	-0.142813	0.580649	0.878054	-0.006480	0.628985	0.900885	-0.002040	0.717225	1.364264	-0.064011	0.571118	0.956040	0.007822	0.574329	0.905866	0.029411	0.601396	0.909925	0.034491	0.611878	0.964476	0.018291	0.628596	1.194259	-0.029392	0.598135	1.222457	-0.072961	0.616367	1.282665	-0.061479	0.654976	1.263343	-0.021456	0.961560	1.269759	-0.103209	0.912622	1.219182	-0.056743	0.926233	1.271737	-0.076408	0.963636	1.215327	-0.096142	0.900336	1.322463	-0.126600	0.880427	1.138682	-0.119622	0.755903	1.352268	-0.094902	0.911093	1.242253	-0.060049
8	0.080000	0.872608	1.434066	-0.181835	0.796886	1.278832	-0.259724	0.586031	1.119951	-0.087672	0.613504	1.114756	-0.146375	0.573815	0.878708	-0.010681	0.622066	0.901578	-0.005566	0.711201	1.364559	-0.066783	0.564100	0.956538	0.003753	0.567097	0.906348	0.025290	0.593875	0.910387	0.030723	0.605256	0.964840	0.013978	0.622014	1.195055	-0.032864	0.592191	1.223163	-0.076954	0.610183	1.283381	-0.065222	0.648341	1.264057	-0.024716	0.956326	1.270858	-0.102904	0.906147	1.218985	-0.057492	0.920607	1.272607	-0.076588	0.958458	1.216379	-0.095730	0.895242	1.323401	-0.127026	0.875897	1.139551	-0.120277	0.750452	1.352867	-0.096877	0.905014	1.242962	-0.060367
9	0.090000	0.867966	1.434739	-0.182604	0.793829	1.279238	-0.261478	0.580495	1.120492	-0.091712	0.608788	1.115194	-0.150015	0.567166	0.879190	-0.014937	0.615353	0.902055	-0.009227	0.705309	1.364654	-0.069682	0.557436	0.956890	-0.000460	0.560208	0.906850	0.021256	0.586880	0.910687	0.026736	0.598581	0.965174	0.010190	0.615689	1.195441	-0.036524	0.586962	1.223664	-0.081115	0.604516	1.283925	-0.069215	0.642058	1.264640	-0.028193	0.951146	1.271615	-0.102738	0.900555	1.219900	-0.057954	0.915185	1.273391	-0.076671	0.953394	1.217300	-0.095410	0.890272	1.324154	-0.127499	0.871495	1.140236	-0.121001	0.745170	1.353299	-0.098946	0.899725	1.243867	-0.060954
10	0.100000	0.863484	1.435265	-0.183409	0.790958	1.279519	-0.263291	0.575191	1.120866	-0.095832	0.604284	1.115475	-0.153731	0.560709	0.879507	-0.019273	0.608852	0.902325	-0.013031	0.699567	1.364596	-0.072695	0.551047	0.957203	-0.004798	0.553487	0.907101	0.016737	0.580147	0.911046	0.022693	0.592369	0.965133	0.006071	0.609707	1.195646	-0.040297	0.581188	1.224048	-0.085183	0.598851	1.284255	-0.073288	0.635820	1.265095	-0.031705	0.946137	1.272448	-0.102369	0.895079	1.220451	-0.058368	0.909865	1.274072	-0.076800	0.948403	1.218036	-0.095117	0.885432	1.324749	-0.128021	0.867210	1.140766	-0.121797	0.740051	1.353594	-0.101112	0.894022	1.244322	-0.061466
11	0.110000	0.859188	1.435682	-0.184246	0.788276	1.279726	-0.265161	0.570126	1.121089	-0.100014	0.599987	1.115618	-0.157513	0.554465	0.879677	-0.023723	0.602579	0.902417	-0.016985	0.693997	1.364442	-0.075815	0.544816	0.957486	-0.008884	0.547095	0.907139	0.012435	0.573640	0.911211	0.018558	0.586171	0.965356	0.002102	0.603691	1.196429	-0.043929	0.575754	1.224304	-0.089323	0.593507	1.284562	-0.077431	0.629904	1.265402	-0.035251	0.941186	1.273041	-0.102187	0.889748	1.220932	-0.058816	0.904633	1.274574	-0.077065	0.943502	1.218625	-0.094898	0.880734	1.325221	-0.128593	0.863031	1.141177	-0.122672	0.735078	1.353787	-0.103405	0.888643	1.244768	-0.062010
12	0.120000	0.855042	1.436019	-0.185104	0.785727	1.279886	-0.267054	0.565342	1.121181	-0.104292	0.595964	1.115656	-0.161385	0.548414	0.879705	-0.028298	0.596513	0.902327	-0.021079	0.688597	1.364222	-0.078984	0.538976	0.957419	-0.013534	0.540812	0.907382	0.008051	0.567463	0.911015	0.014280	0.580438	0.965115	-0.002273	0.598172	1.196345	-0.047991	0.570753	1.224467	-0.093680	0.588361	1.284654	-0.081575	0.624155	1.265600	-0.038986	0.936370	1.273496	-0.102001	0.884418	1.221508	-0.059239	0.899522	1.274965	-0.077383	0.938706	1.219103	-0.094749	0.876160	1.325598	-0.129209	0.858941	1.141498	-0.123612	0.730268	1.353917	-0.105745	0.883412	1.245261	-0.062524
13	0.130000	0.851092	1.436321	-0.185981	0.783337	1.280056	-0.268977	0.560821	1.121169	-0.108631	0.592173	1.115613	-0.165323	0.542600	0.879625	-0.033038	0.590684	0.902115	-0.025324	0.683393	1.364005	-0.082213	0.533187	0.957432	-0.018065	0.534773	0.907099	0.003305	0.561463	0.910617	0.009707	0.574990	0.964836	-0.006655	0.592595	1.196763	-0.051848	0.566285	1.224478	-0.098166	0.583578	1.284766	-0.085913	0.618724	1.265715	-0.042728	0.931749	1.273978	-0.101810	0.879351	1.221767	-0.059859	0.894425	1.275248	-0.077595	0.934076	1.219686	-0.094518	0.871736	1.325920	-0.129869	0.854939	1.141771	-0.124625	0.725594	1.354019	-0.108198	0.878402	1.245416	-0.063046
14	0.140000	0.847307	1.436615	-0.186867	0.781061	1.280258	-0.270902	0.556587	1.121078	-0.113057	0.588659	1.115522	-0.169345	0.537013	0.879450	-0.037950	0.585078	0.901792	-0.029709	0.678381	1.363819	-0.085452	0.527680	0.957277	-0.022983	0.528902	0.906937	-0.001583	0.555446	0.910437	0.005025	0.570094	0.964044	-0.011511	0.587565	1.196759	-0.055916	0.561872	1.224410	-0.102672	0.578698	1.284714	-0.090141	0.613443	1.265758	-0.046547	0.927176	1.274572	-0.101778	0.874310	1.221898	-0.060513	0.889257	1.275116	-0.078117	0.929630	1.220168	-0.094542	0.867446	1.326218	-0.130565	0.851016	1.142025	-0.125695	0.721066	1.354124	-0.110698	0.873407	1.245812	-0.063670
15	0.150000	0.843690	1.436929	-0.187759	0.778892	1.280520	-0.272820	0.552633	1.120935	-0.117567	0.585414	1.115412	-0.173448	0.531669	0.879204	-0.043048	0.579702	0.901395	-0.034231	0.673565	1.363699	-0.088687	0.522310	0.957047	-0.028098	0.523251	0.906659	-0.006766	0.549619	0.910231	0.000167	0.564596	0.963684	-0.015868	0.582880	1.196644	-0.060161	0.557270	1.224341	-0.106970	0.574281	1.284653	-0.094482	0.608456	1.265769	-0.050469	0.922770	1.275002	-0.101798	0.869509	1.222267	-0.061117	0.884431	1.275323	-0.078888	0.925245	1.220694	-0.094492	0.863293	1.326518	-0.131294	0.847170	1.142289	-0.126816	0.716677	1.354258	-0.113246	0.868526	1.246306	-0.064342
16	0.160000	0.840257	1.437287	-0.188657	0.776843	1.280865	-0.274731	0.548933	1.120764	-0.122146	0.582405	1.115302	-0.177622	0.526595	0.878915	-0.048346	0.574568	0.900970	-0.038886	0.668956	1.363677	-0.091921	0.517097	0.956836	-0.033445	0.517679	0.906409	-0.012075	0.543962	0.910048	-0.004722	0.559394	0.963224	-0.020764	0.578305	1.196625	-0.064379	0.553844	1.224170	-0.111758	0.570003	1.284553	-0.098859	0.603706	1.265757	-0.054395	0.918500	1.275555	-0.101782	0.865480	1.222133	-0.062402	0.879827	1.275591	-0.079698	0.920983	1.221218	-0.094493	0.859291	1.326847	-0.132053	0.843408	1.142588	-0.127981	0.712417	1.354436	-0.115868	0.863967	1.246600	-0.065119
17	0.170000	0.836963	1.437689	-0.189558	0.774871	1.281278	-0.276610	0.545502	1.120583	-0.126827	0.579674	1.115216	-0.181884	0.521768	0.878590	-0.053825	0.569654	0.900519	-0.043658	0.664531	1.363746	-0.095113	0.511972	0.956680	-0.038818	0.512275	0.906148	-0.017695	0.538405	0.909778	-0.009725	0.554371	0.962806	-0.025703	0.574474	1.195690	-0.068955	0.550136	1.223962	-0.116338	0.565361	1.284537	-0.103033	0.599168	1.265705	-0.058383	0.914427	1.276030	-0.101888	0.860621	1.224042	-0.062397	0.875285	1.276008	-0.080299	0.916941	1.221677	-0.094540	0.855416	1.327213	-0.132834	0.839730	1.142928	-0.129167	0.708303	1.354667	-0.118486	0.859319	1.247069	-0.065925
